<svg width="150" height="276" viewBox="0 0 150 276" fill="none" xmlns="http://www.w3.org/2000/svg">
<path d="M142.552 215.791H141.533V215.222H144.276V215.791H143.264V218.628H142.552V215.791ZM148.023 215.939H148.007L146.998 218.629H146.536L145.533 215.939H145.52V218.629H144.849V215.223H145.837L146.767 217.635L147.694 215.223H148.678V218.629H148.023L148.023 215.939Z" fill="#5382A1"/>
<path d="M51.3405 146.143C51.3405 146.143 44.2515 150.256 56.3855 151.648C71.0855 153.321 78.5985 153.081 94.798 150.022C94.798 150.022 99.057 152.686 105.005 154.994C68.69 170.522 22.817 154.094 51.3405 146.143Z" fill="#5382A1"/>
<path d="M46.903 125.88C46.903 125.88 38.952 131.752 51.095 133.005C66.798 134.621 79.199 134.754 100.657 130.631C100.657 130.631 103.625 133.633 108.292 135.275C64.3855 148.084 15.481 136.285 46.903 125.88Z" fill="#5382A1"/>
<path d="M84.3125 91.5082C93.2605 101.786 81.9615 111.035 81.9615 111.035C81.9615 111.035 104.682 99.3334 94.2475 84.6802C84.502 71.0151 77.0285 64.2255 117.487 40.8157C117.487 40.8157 53.9805 56.6397 84.3125 91.5082Z" fill="#F8981D"/>
<path d="M132.342 161.131C132.342 161.131 137.588 165.443 126.565 168.779C105.603 175.114 39.3205 177.027 20.9075 169.032C14.2885 166.159 26.701 162.172 30.6055 161.336C34.6775 160.455 37.0045 160.619 37.0045 160.619C29.6435 155.445 -10.574 170.777 16.576 175.168C90.618 187.147 151.548 169.773 132.342 161.131Z" fill="#5382A1"/>
<path d="M54.7495 104.886C54.7495 104.886 21.034 112.875 42.81 115.777C52.0045 117.005 70.3335 116.727 87.4065 115.3C101.36 114.125 115.37 111.629 115.37 111.629C115.37 111.629 110.45 113.731 106.891 116.156C72.653 125.139 6.5125 120.96 25.5535 111.771C41.6565 104.005 54.7495 104.886 54.7495 104.886Z" fill="#5382A1"/>
<path d="M115.231 138.614C150.035 120.571 133.943 103.231 122.711 105.567C119.958 106.139 118.73 106.634 118.73 106.634C118.73 106.634 119.752 105.037 121.704 104.346C143.925 96.5519 161.014 127.332 114.531 139.523C114.531 139.523 115.07 139.044 115.231 138.614Z" fill="#5382A1"/>
<path d="M94.2475 3.01489C94.2475 3.01489 113.522 22.2514 75.966 51.8318C45.8495 75.5604 69.0985 89.0898 75.9535 104.548C58.374 88.7236 45.473 74.7937 54.128 61.829C66.8315 42.7979 102.024 33.571 94.2475 3.01489Z" fill="#F8981D"/>
<path d="M58.1695 187.507C91.577 189.641 142.878 186.324 144.093 170.553C144.093 170.553 141.757 176.532 116.483 181.279C87.9695 186.633 52.8015 186.008 31.943 182.577C31.943 182.577 36.213 186.103 58.1695 187.507Z" fill="#5382A1"/>
<path d="M52.6945 247.768C49.543 250.495 46.2145 252.026 43.2275 252.026C38.964 252.026 36.6605 249.475 36.6605 245.384C36.6605 240.959 39.1285 237.724 49.03 237.724H52.694L52.6945 247.768ZM61.3905 257.556V227.256C61.3905 219.516 56.9655 214.408 46.2965 214.408C40.068 214.408 34.612 215.942 30.1775 217.899L31.4575 223.263C34.949 221.984 39.4685 220.794 43.9045 220.794C50.0505 220.794 52.6945 223.263 52.6945 228.367V232.197H49.627C34.6945 232.197 27.9585 237.98 27.9585 246.66C27.9585 254.151 32.3975 258.409 40.7555 258.409C46.128 258.409 50.1385 256.196 53.8875 252.958L54.568 257.557L61.3905 257.556Z" fill="#5382A1"/>
<path d="M90.4125 257.556H79.5665L66.5135 215.175H75.985L84.0845 241.214L85.885 249.046C89.9825 237.723 92.8805 226.236 94.33 215.175H103.543C101.075 229.131 96.633 244.449 90.4125 257.556Z" fill="#5382A1"/>
<path d="M132.019 247.768C128.861 250.495 125.527 252.026 122.54 252.026C118.284 252.026 115.974 249.475 115.974 245.384C115.974 240.959 118.448 237.724 128.349 237.724H132.019V247.768ZM140.714 257.556V227.256C140.714 219.516 136.278 214.408 125.621 214.408C119.388 214.408 113.93 215.942 109.498 217.899L110.776 223.263C114.269 221.984 118.797 220.794 123.229 220.794C129.371 220.794 132.019 223.263 132.019 228.367V232.197H128.946C114.009 232.197 107.276 237.98 107.276 246.66C107.276 254.151 111.712 258.409 120.068 258.409C125.444 258.409 129.453 256.196 133.208 252.958L133.891 257.557L140.714 257.556Z" fill="#5382A1"/>
<path d="M18.4235 264.753C15.9445 268.364 11.9405 271.221 7.55699 272.837L3.26349 267.797C6.59999 266.089 9.46149 263.33 10.791 260.761C11.941 258.476 12.417 255.53 12.417 248.487V200.103H21.656V247.824C21.6555 257.24 20.901 261.044 18.4235 264.753Z" fill="#5382A1"/>
</svg>
