<svg width="150" height="90" viewBox="0 0 150 90" fill="none" xmlns="http://www.w3.org/2000/svg">
<g clip-path="url(#clip0_436_746)">
<path fill-rule="evenodd" clip-rule="evenodd" d="M74.9455 0.357178C54.9818 0.357178 42.5455 10.2657 37.5273 30.0828C45.0545 20.1742 53.7818 16.4722 63.8182 18.8676C69.4909 20.2831 73.6364 24.4208 78.1091 28.8851C85.4182 36.3981 93.9273 45 112.473 45C132.436 45 144.982 35.0915 150 15.2744C142.473 25.183 133.745 28.8851 123.818 26.3807C118.145 24.9652 114 20.8276 109.527 16.3633C102.109 8.95909 93.6 0.357178 74.9455 0.357178ZM37.5273 45C17.4545 45 5.01818 54.9086 0 74.7256C7.52727 64.8171 16.2545 61.115 26.2909 63.5105C31.9636 64.926 36.1091 69.0636 40.5818 73.5279C47.8909 81.041 56.4 89.6429 74.9455 89.6429C94.9091 89.6429 107.455 79.7344 112.473 59.9173C104.945 69.8258 96.2182 73.5279 86.1818 71.0236C80.5091 69.608 76.3636 65.4704 71.8909 61.0061C64.5818 53.602 56.0727 45 37.5273 45Z" fill="#38BDF8"/>
</g>
<defs>
<clipPath id="clip0_436_746">
<rect width="150" height="89.2857" fill="white" transform="translate(0 0.357178)"/>
</clipPath>
</defs>
</svg>
